<?xml version="1.0" standalone="no"?>
<!DOCTYPE svg PUBLIC "-//W3C//DTD SVG 20010904//EN"
 "http://www.w3.org/TR/2001/REC-SVG-20010904/DTD/svg10.dtd">
<svg version="1.0" xmlns="http://www.w3.org/2000/svg"
 width="1063.000000pt" height="1063.000000pt" viewBox="0 0 1063.000000 1063.000000"
 preserveAspectRatio="xMidYMid meet">
<metadata>
Created by potrace 1.14, written by Peter Selinger 2001-2017
</metadata>
<g transform="translate(0.000000,1063.000000) scale(0.100000,-0.100000)"
fill="#000000" stroke="none">
<path d="M4731 10443 c-58 -2 -110 -8 -115 -12 -6 -5 -65 -12 -131 -16 -79 -5
-124 -12 -133 -21 -9 -10 -40 -14 -96 -14 -62 0 -87 -4 -96 -15 -8 -10 -30
-15 -65 -15 -32 0 -57 -5 -64 -14 -6 -7 -34 -16 -62 -19 -28 -4 -56 -10 -63
-16 -6 -5 -36 -12 -66 -16 -30 -4 -64 -14 -75 -21 -11 -8 -34 -14 -51 -14 -17
0 -37 -7 -44 -15 -7 -8 -27 -15 -45 -15 -18 0 -38 -6 -44 -14 -7 -8 -31 -18
-54 -21 -23 -4 -51 -14 -62 -21 -11 -8 -31 -14 -45 -14 -14 0 -34 -7 -44 -15
-11 -8 -27 -15 -37 -15 -9 0 -22 -7 -29 -15 -7 -8 -27 -15 -46 -15 -18 0 -35
-4 -38 -9 -9 -15 -88 -49 -128 -56 -21 -4 -42 -13 -49 -21 -6 -8 -19 -14 -29
-14 -10 0 -23 -7 -30 -15 -7 -8 -21 -15 -31 -15 -9 0 -24 -7 -32 -15 -8 -7
-26 -17 -40 -20 -15 -4 -31 -13 -38 -21 -6 -8 -19 -14 -29 -14 -10 0 -23 -7
-30 -15 -7 -8 -20 -15 -30 -15 -10 0 -23 -7 -30 -15 -7 -8 -20 -15 -30 -15 -9
0 -34 -16 -54 -35 -21 -19 -46 -35 -55 -35 -10 0 -24 -7 -31 -15 -7 -8 -19
-15 -28 -15 -8 0 -32 -16 -53 -35 -22 -19 -45 -35 -52 -35 -7 0 -26 -13 -42
-30 -16 -16 -36 -30 -45 -30 -9 0 -34 -16 -56 -35 -21 -19 -46 -35 -54 -35 -8
0 -35 -19 -60 -43 -25 -23 -55 -46 -67 -52 -12 -5 -48 -35 -81 -67 -33 -31
-70 -59 -83 -63 -26 -9 -619 -598 -619 -616 0 -7 -36 -51 -80 -100 -44 -48
-80 -91 -80 -97 0 -5 -22 -34 -50 -63 -27 -30 -50 -61 -50 -69 0 -8 -16 -33
-35 -54 -19 -22 -35 -47 -35 -56 0 -9 -13 -29 -30 -45 -16 -16 -30 -35 -30
-42 0 -7 -16 -30 -35 -52 -19 -21 -35 -45 -35 -53 0 -9 -7 -21 -15 -28 -8 -7
-15 -21 -15 -31 0 -9 -7 -24 -15 -33 -8 -8 -15 -20 -15 -26 0 -17 -42 -89 -72
-123 -16 -18 -28 -39 -28 -48 0 -9 -6 -22 -14 -28 -8 -7 -17 -23 -21 -38 -3
-14 -13 -32 -20 -40 -8 -8 -15 -23 -15 -32 0 -10 -7 -24 -15 -31 -8 -7 -15
-20 -15 -30 0 -10 -7 -23 -15 -30 -8 -7 -15 -20 -15 -30 0 -10 -7 -23 -15 -30
-8 -7 -15 -18 -15 -24 0 -6 -7 -24 -15 -39 -8 -15 -17 -43 -21 -62 -3 -19 -12
-39 -20 -46 -8 -6 -14 -19 -14 -29 0 -10 -7 -23 -15 -30 -8 -7 -15 -26 -15
-42 0 -17 -6 -42 -14 -56 -8 -15 -18 -44 -21 -64 -3 -21 -10 -38 -15 -38 -5 0
-12 -27 -16 -60 -3 -33 -13 -65 -20 -71 -9 -7 -14 -32 -14 -64 0 -32 -5 -57
-14 -64 -7 -6 -16 -38 -20 -71 -4 -33 -11 -62 -15 -64 -4 -3 -11 -38 -15 -77
-3 -40 -12 -79 -18 -86 -6 -8 -14 -52 -16 -99 -3 -54 -9 -88 -18 -95 -10 -8
-14 -38 -14 -108 0 -70 -4 -102 -15 -118 -12 -17 -17 -71 -22 -258 -3 -130
-10 -238 -15 -241 -11 -7 -11 -271 0 -278 5 -3 12 -118 16 -257 5 -197 10
-256 21 -272 11 -15 15 -49 15 -118 0 -69 4 -100 14 -108 8 -7 16 -45 20 -98
4 -48 11 -92 15 -98 5 -5 11 -41 14 -79 4 -37 11 -74 16 -80 6 -7 13 -38 17
-69 4 -31 13 -62 20 -68 8 -6 14 -29 14 -49 0 -21 5 -40 11 -42 6 -2 15 -29
20 -60 5 -30 16 -68 24 -84 8 -16 15 -41 15 -55 0 -15 7 -32 15 -39 8 -7 15
-20 15 -30 0 -10 7 -23 15 -30 8 -7 15 -29 15 -50 0 -21 7 -43 15 -50 8 -7 17
-28 21 -48 4 -19 13 -47 20 -61 8 -14 14 -30 14 -34 0 -5 7 -15 15 -23 8 -9
15 -26 15 -39 0 -12 7 -25 15 -29 9 -3 15 -18 15 -39 0 -19 7 -40 15 -47 8 -7
15 -21 15 -31 0 -9 7 -24 15 -32 7 -8 17 -26 20 -40 4 -15 13 -31 21 -38 8 -6
14 -19 14 -29 0 -10 7 -23 15 -30 8 -7 15 -20 15 -30 0 -10 6 -23 14 -29 8 -7
17 -23 20 -36 3 -13 20 -39 36 -57 17 -18 30 -40 30 -49 0 -9 7 -22 15 -29 8
-7 15 -20 15 -29 0 -9 13 -31 28 -48 29 -31 72 -105 72 -124 0 -5 22 -33 50
-62 27 -29 50 -59 50 -67 0 -8 23 -39 50 -69 28 -29 50 -59 50 -65 0 -6 30
-42 65 -81 36 -38 65 -75 65 -80 0 -6 49 -62 110 -125 60 -63 113 -125 116
-137 3 -12 19 -26 34 -32 18 -6 30 -18 32 -32 2 -14 12 -25 24 -29 12 -3 97
-78 189 -167 92 -90 172 -163 177 -163 6 0 43 -29 83 -65 40 -36 79 -65 86
-65 8 0 27 -14 43 -30 16 -17 35 -30 43 -30 7 0 30 -16 52 -35 21 -19 43 -35
50 -35 6 0 31 -16 57 -35 25 -19 49 -35 54 -35 5 0 24 -13 42 -30 18 -16 40
-30 49 -30 9 0 22 -7 29 -15 7 -8 19 -15 28 -15 8 0 32 -16 53 -35 22 -19 47
-35 58 -35 10 0 24 -7 31 -15 7 -8 20 -15 30 -15 10 0 23 -7 30 -15 7 -8 19
-15 27 -15 8 0 26 -9 40 -20 14 -11 32 -20 40 -20 8 0 21 -7 29 -15 9 -8 24
-15 33 -15 10 0 24 -7 31 -15 7 -8 19 -15 28 -15 8 0 23 -7 33 -16 10 -9 36
-18 58 -21 22 -3 46 -12 52 -19 6 -8 19 -14 29 -14 10 0 23 -7 30 -15 7 -8 20
-15 30 -15 10 0 23 -7 30 -15 7 -8 27 -15 44 -15 18 0 41 -7 52 -15 10 -8 30
-15 44 -15 14 0 34 -6 45 -14 11 -7 39 -17 62 -21 23 -3 47 -13 54 -21 6 -8
26 -14 44 -14 18 0 38 -7 45 -15 8 -9 30 -15 59 -15 26 0 55 -6 66 -14 11 -7
51 -16 90 -20 38 -4 75 -11 81 -17 7 -6 44 -13 83 -16 41 -3 76 -12 82 -19 8
-9 34 -14 79 -14 45 0 71 -5 79 -14 8 -9 50 -15 133 -20 69 -4 129 -13 137
-19 20 -17 1142 -17 1162 -1 8 7 74 15 151 19 98 5 141 11 149 21 8 10 36 14
94 14 59 0 86 4 94 14 7 8 42 17 84 21 40 4 77 11 82 15 6 4 35 11 65 15 30 4
64 14 75 21 11 8 40 14 66 14 29 0 51 6 59 15 8 10 30 15 65 15 33 0 57 5 64
14 7 8 27 18 44 21 18 3 41 10 52 15 11 5 36 11 56 15 21 3 42 12 49 20 7 8
27 15 45 15 18 0 38 7 45 15 7 8 23 15 35 15 12 0 28 7 35 15 7 8 23 15 36 15
13 0 53 16 88 35 36 19 78 35 94 35 16 0 37 9 47 20 10 11 24 20 31 20 8 0 39
13 69 30 30 17 62 30 69 30 7 0 19 7 26 15 7 8 20 15 30 15 10 0 23 7 30 15 7
8 20 15 30 15 10 0 23 6 29 14 7 8 23 17 37 20 15 4 40 20 58 36 17 17 38 30
47 30 9 0 22 7 29 15 7 8 19 15 26 15 8 0 31 16 53 35 21 19 45 35 53 35 8 0
27 13 43 30 16 16 36 30 46 30 9 0 34 16 55 35 22 19 46 35 54 35 8 0 28 14
44 30 16 17 36 30 44 30 8 0 44 29 81 65 37 36 74 65 81 65 19 0 560 540 560
559 0 7 38 53 85 100 47 48 85 94 85 102 0 8 8 22 18 30 46 42 112 120 112
131 0 7 20 35 45 61 25 27 48 59 51 72 3 12 19 35 35 51 16 15 29 35 29 44 0
9 14 29 30 45 17 16 30 37 30 47 0 10 9 26 20 35 11 10 20 27 20 38 0 11 13
32 29 46 17 15 33 38 36 52 4 13 20 37 36 53 20 19 29 37 29 60 0 17 7 37 15
44 8 7 15 19 15 26 0 7 13 39 30 69 17 30 30 61 30 69 0 7 9 21 20 31 11 10
20 31 20 46 0 24 62 159 88 193 5 6 12 23 16 39 3 15 11 27 16 27 6 0 10 17
10 39 0 21 6 44 14 50 7 6 16 30 19 53 3 22 10 44 15 47 6 3 13 32 17 63 4 32
13 63 21 69 8 6 14 28 14 49 0 21 7 43 15 50 9 8 15 30 15 59 0 26 6 55 14 66
7 11 16 51 20 90 4 38 11 75 17 81 6 7 13 44 16 83 3 41 12 76 19 82 10 8 14
37 14 94 0 61 4 86 15 95 12 10 15 43 15 174 0 127 3 166 15 182 22 29 22 736
0 754 -12 10 -15 43 -15 177 0 133 -3 167 -15 179 -11 12 -15 40 -15 113 0 73
-4 102 -14 110 -9 7 -17 42 -21 87 -4 41 -11 76 -15 79 -5 3 -11 32 -15 65 -4
32 -13 64 -21 71 -9 7 -14 31 -14 62 0 29 -6 57 -14 66 -7 9 -16 39 -19 66 -3
28 -12 64 -21 80 -9 17 -16 38 -16 48 0 9 -4 25 -9 35 -6 9 -13 33 -16 53 -3
21 -12 42 -20 49 -8 7 -15 27 -15 45 0 18 -7 38 -15 45 -8 7 -15 20 -15 30 0
10 -7 23 -15 30 -8 7 -15 25 -15 41 0 16 -16 58 -35 93 -19 36 -35 78 -35 94
0 16 -7 35 -15 42 -8 7 -15 20 -15 29 0 9 -4 21 -9 27 -16 15 -61 104 -61 118
0 8 -7 19 -15 26 -8 7 -15 20 -15 30 0 10 -7 23 -15 30 -8 7 -15 19 -15 28 0
8 -16 32 -35 53 -19 22 -35 48 -35 59 0 11 -4 20 -10 20 -5 0 -13 12 -16 28
-4 15 -18 38 -32 52 -14 14 -31 39 -38 56 -7 17 -24 42 -38 55 -14 13 -26 30
-26 38 0 8 -16 33 -35 57 -19 23 -35 47 -35 53 0 6 -13 24 -30 41 -16 17 -30
37 -30 45 0 8 -17 32 -37 54 -82 87 -90 97 -97 116 -3 11 -42 58 -86 104 -44
46 -80 89 -80 95 0 15 -443 456 -458 456 -7 0 -49 36 -94 80 -46 44 -90 80
-98 80 -9 0 -22 8 -31 18 -28 32 -92 82 -105 82 -7 0 -27 14 -44 30 -17 17
-35 30 -41 30 -6 0 -30 16 -53 35 -24 19 -50 35 -58 35 -8 0 -25 11 -37 24
-13 14 -49 37 -80 53 -31 15 -68 37 -82 48 -14 12 -68 42 -120 69 -52 26 -101
51 -109 55 -8 5 -67 34 -130 66 -63 31 -122 60 -130 64 -8 4 -30 15 -48 24
-19 9 -39 17 -47 17 -7 0 -18 6 -24 14 -6 8 -31 17 -56 20 -24 4 -49 14 -55
21 -7 8 -20 15 -30 15 -10 0 -23 7 -30 15 -7 8 -27 15 -45 15 -18 0 -38 7 -45
15 -7 8 -28 17 -49 21 -40 7 -118 40 -127 55 -3 5 -29 9 -58 9 -35 0 -58 5
-66 15 -7 8 -27 15 -46 15 -18 0 -39 6 -47 14 -7 8 -39 17 -70 21 -32 4 -60
11 -62 16 -3 4 -32 11 -65 15 -33 4 -65 13 -71 20 -8 9 -34 14 -79 14 -48 0
-71 4 -80 15 -9 11 -34 15 -96 15 -56 0 -87 4 -96 14 -9 9 -54 16 -133 21 -66
4 -126 12 -133 18 -13 10 -730 18 -961 10z m838 -602 c131 -8 178 -14 191 -26
12 -11 40 -15 111 -15 68 0 101 -4 115 -15 10 -8 39 -15 64 -15 25 0 54 -6 65
-14 11 -7 43 -16 72 -19 28 -3 60 -10 70 -16 10 -5 39 -13 65 -16 25 -3 52
-13 58 -20 7 -9 30 -15 54 -15 22 0 54 -7 70 -15 15 -8 37 -15 47 -15 11 0 22
-6 25 -14 3 -8 25 -17 49 -20 24 -4 49 -14 55 -21 7 -8 27 -15 46 -15 18 0 39
-7 48 -15 8 -8 23 -15 34 -15 11 0 25 -7 32 -15 7 -8 22 -15 34 -15 12 0 38
-9 59 -20 20 -11 43 -20 51 -20 7 0 19 -7 26 -15 7 -8 22 -15 34 -15 29 0 392
-182 417 -209 11 -12 28 -21 38 -21 10 0 24 -7 31 -15 7 -8 18 -15 25 -15 7 0
32 -16 55 -35 23 -19 47 -35 54 -35 7 0 26 -13 42 -30 16 -16 34 -30 40 -30 6
0 32 -16 57 -35 25 -19 50 -35 55 -35 5 0 48 -36 95 -80 47 -44 91 -80 97 -80
17 0 550 -533 550 -549 0 -7 29 -45 65 -83 36 -39 65 -76 65 -83 0 -11 27 -44
85 -106 8 -9 15 -22 15 -30 0 -9 14 -28 30 -44 17 -16 30 -36 30 -45 0 -9 16
-34 35 -56 19 -21 35 -46 35 -54 0 -8 13 -28 29 -45 30 -31 51 -82 51 -121 0
-16 7 -24 22 -26 13 -2 24 -11 27 -23 2 -11 7 -22 11 -25 13 -8 40 -81 40
-106 0 -15 6 -24 15 -24 8 0 15 -9 15 -19 0 -30 11 -51 26 -51 9 0 14 -11 14
-30 0 -20 5 -30 15 -30 11 0 15 -12 15 -50 0 -38 4 -50 15 -50 10 0 15 -10 15
-30 0 -23 6 -33 25 -40 18 -7 25 -17 25 -35 0 -14 5 -25 10 -25 6 0 10 -22 10
-50 0 -38 4 -50 15 -50 11 0 15 -12 15 -45 0 -31 5 -47 15 -51 8 -4 15 -17 15
-31 0 -16 7 -27 20 -30 17 -5 20 -14 20 -69 0 -50 3 -64 15 -64 11 0 15 -12
15 -50 0 -38 4 -50 15 -50 12 0 15 -14 15 -65 0 -51 3 -65 15 -65 11 0 15 -12
15 -46 0 -37 4 -47 20 -51 19 -5 20 -14 20 -134 0 -108 2 -129 15 -129 12 0
15 -17 15 -95 0 -76 3 -97 15 -101 13 -5 15 -66 15 -465 0 -401 -2 -459 -15
-459 -12 0 -15 -17 -15 -95 0 -78 -3 -95 -15 -95 -12 0 -15 -18 -15 -99 0 -90
-2 -99 -20 -104 -16 -4 -20 -14 -20 -51 0 -34 -4 -46 -15 -46 -12 0 -15 -17
-15 -95 0 -78 -3 -95 -15 -95 -11 0 -15 -12 -15 -50 0 -38 -4 -50 -15 -50 -12
0 -15 -14 -15 -64 0 -55 -3 -64 -20 -69 -16 -4 -20 -14 -20 -51 0 -34 -4 -46
-15 -46 -11 0 -15 -12 -15 -50 0 -38 -4 -50 -15 -50 -10 0 -15 -10 -15 -30 0
-19 -5 -30 -14 -30 -15 0 -26 -30 -26 -71 0 -15 -7 -29 -15 -33 -8 -3 -15 -17
-15 -31 0 -14 -7 -28 -15 -31 -9 -4 -15 -19 -15 -35 0 -19 -5 -29 -15 -29 -10
0 -15 -10 -15 -30 0 -19 -7 -33 -20 -40 -11 -6 -20 -21 -20 -34 0 -13 -7 -26
-15 -30 -9 -3 -15 -18 -15 -36 0 -20 -5 -30 -15 -30 -10 0 -15 -10 -15 -30 0
-20 -5 -30 -15 -30 -10 0 -15 -10 -15 -34 0 -25 -5 -35 -20 -39 -12 -3 -20
-14 -20 -26 0 -12 -13 -35 -30 -51 -18 -17 -30 -40 -30 -55 0 -16 -6 -25 -15
-25 -8 0 -15 -6 -15 -14 0 -7 -9 -16 -20 -19 -15 -4 -20 -14 -20 -36 0 -21 -5
-31 -15 -31 -8 0 -15 -7 -15 -15 0 -8 -7 -15 -15 -15 -8 0 -15 -7 -15 -15 0
-8 -7 -15 -15 -15 -10 0 -15 -11 -15 -35 0 -19 -5 -35 -11 -35 -22 0 -59 -45
-59 -72 0 -18 -5 -28 -15 -28 -8 0 -15 -7 -15 -15 0 -8 -4 -15 -10 -15 -5 0
-28 -18 -50 -40 -22 -22 -40 -44 -40 -50 0 -5 -7 -10 -15 -10 -10 0 -15 -10
-15 -29 0 -20 -6 -30 -20 -34 -11 -3 -20 -12 -20 -21 0 -9 -7 -16 -15 -16 -8
0 -15 -7 -15 -15 0 -8 -7 -15 -15 -15 -8 0 -15 -7 -15 -15 0 -8 -7 -15 -15
-15 -8 0 -15 -6 -15 -14 0 -7 -9 -16 -20 -19 -11 -3 -20 -12 -20 -21 0 -9 -7
-16 -15 -16 -8 0 -15 -7 -15 -15 0 -8 -7 -15 -15 -15 -8 0 -15 -7 -15 -15 0
-8 -7 -15 -15 -15 -8 0 -15 -6 -15 -14 0 -8 -9 -18 -20 -21 -11 -3 -20 -13
-20 -21 0 -8 -7 -14 -15 -14 -8 0 -15 -7 -15 -15 0 -8 -7 -15 -15 -15 -8 0
-15 -7 -15 -15 0 -8 -4 -15 -10 -15 -12 0 -60 -48 -60 -60 0 -6 -7 -10 -15
-10 -8 0 -15 -7 -15 -15 0 -10 -10 -15 -26 -15 -27 0 -74 -36 -74 -57 0 -7 -7
-13 -15 -13 -8 0 -15 -7 -15 -15 0 -10 -10 -15 -26 -15 -27 0 -104 -66 -104
-89 0 -6 -16 -11 -35 -11 -24 0 -35 -5 -35 -15 0 -8 -7 -15 -15 -15 -8 0 -15
-7 -15 -15 0 -8 -7 -15 -15 -15 -8 0 -15 -7 -15 -15 0 -10 -10 -15 -31 -15
-22 0 -32 -5 -36 -20 -4 -14 -14 -20 -34 -20 -19 0 -29 -5 -29 -15 0 -8 -7
-15 -15 -15 -9 0 -18 -7 -21 -15 -4 -8 -17 -15 -30 -15 -14 0 -27 -7 -30 -15
-4 -8 -14 -15 -24 -15 -29 0 -50 -11 -50 -26 0 -8 -7 -14 -15 -14 -8 0 -15 -7
-15 -15 0 -11 -11 -15 -43 -15 -35 0 -47 -5 -67 -30 -15 -17 -35 -29 -50 -30
-41 -1 -70 -11 -70 -26 0 -8 -7 -14 -15 -14 -8 0 -15 -7 -15 -15 0 -11 -12
-15 -45 -15 -31 0 -47 -5 -51 -15 -4 -8 -17 -15 -30 -15 -13 0 -28 -9 -34 -20
-8 -15 -21 -20 -55 -20 -33 0 -45 -4 -45 -15 0 -10 -10 -15 -30 -15 -18 0 -33
-6 -36 -15 -4 -10 -20 -15 -49 -15 -29 0 -45 -5 -49 -15 -3 -10 -19 -15 -47
-15 -32 0 -42 -4 -46 -20 -5 -17 -14 -20 -69 -20 -50 0 -64 -3 -64 -15 0 -10
-11 -15 -35 -15 -24 0 -35 -5 -35 -15 0 -12 -16 -15 -80 -15 -64 0 -80 -3 -80
-15 0 -10 -10 -15 -34 -15 -44 0 -66 -9 -66 -26 0 -11 -21 -14 -95 -14 -76 0
-97 -3 -101 -15 -5 -12 -24 -15 -85 -15 -64 0 -79 -3 -79 -15 0 -13 -33 -15
-240 -15 -205 0 -241 -2 -246 -15 -8 -21 -100 -21 -108 0 -8 21 -114 21 -122
0 -8 -21 -100 -21 -108 0 -4 13 -40 15 -231 15 -193 0 -225 2 -225 15 0 12
-17 15 -95 15 -78 0 -95 3 -95 15 0 12 -16 15 -84 15 -75 0 -84 2 -89 20 -4
16 -14 20 -46 20 -28 0 -44 5 -47 15 -5 11 -22 15 -65 15 -44 0 -61 4 -65 15
-4 10 -20 15 -50 15 -32 0 -44 4 -44 15 0 12 -14 15 -65 15 -49 0 -65 3 -65
14 0 15 -21 26 -51 26 -10 0 -19 7 -19 15 0 12 -14 15 -65 15 -51 0 -65 3 -65
15 0 10 -10 15 -29 15 -16 0 -31 6 -35 15 -3 9 -19 15 -41 15 -23 0 -41 7 -52
20 -10 11 -30 20 -45 20 -18 0 -28 5 -28 15 0 10 -10 15 -29 15 -16 0 -31 6
-35 15 -3 9 -18 15 -36 15 -19 0 -30 5 -30 14 0 8 -13 17 -29 21 -16 3 -32 13
-35 21 -3 8 -19 14 -36 14 -20 0 -30 5 -30 15 0 10 -10 15 -30 15 -18 0 -33 6
-36 15 -4 8 -12 15 -19 15 -7 0 -15 9 -18 20 -3 13 -14 20 -30 20 -14 0 -27 7
-31 15 -3 9 -18 15 -36 15 -20 0 -30 5 -30 15 0 8 -7 15 -15 15 -8 0 -15 7
-15 15 0 10 -11 15 -35 15 -25 0 -35 4 -35 15 0 9 -7 18 -15 21 -8 4 -15 12
-15 20 0 8 -7 14 -15 14 -8 0 -15 7 -15 15 0 10 -11 15 -35 15 -24 0 -35 5
-35 15 0 8 -7 15 -15 15 -8 0 -15 6 -15 13 0 21 -47 57 -74 57 -16 0 -26 5
-26 15 0 8 -7 15 -15 15 -8 0 -15 7 -15 15 0 8 -7 15 -15 15 -8 0 -15 7 -15
16 0 9 -9 18 -20 21 -11 3 -20 12 -20 19 0 9 -11 14 -30 14 -20 0 -30 5 -30
15 0 8 -7 15 -15 15 -8 0 -15 6 -15 14 0 8 -9 18 -20 21 -11 3 -20 13 -20 21
0 8 -7 14 -15 14 -8 0 -15 7 -15 15 0 8 -7 15 -15 15 -8 0 -15 7 -15 15 0 8
-4 15 -10 15 -12 0 -60 48 -60 60 0 6 -7 10 -15 10 -8 0 -15 7 -15 15 0 8 -7
15 -15 15 -8 0 -15 7 -15 15 0 8 -6 15 -14 15 -8 0 -18 9 -21 20 -3 11 -13 20
-21 20 -8 0 -14 7 -14 15 0 8 -7 15 -15 15 -8 0 -15 7 -15 15 0 8 -7 15 -15
15 -8 0 -15 6 -15 14 0 7 -9 16 -20 19 -11 3 -20 12 -20 21 0 9 -7 16 -15 16
-8 0 -15 7 -15 15 0 8 -7 15 -15 15 -9 0 -15 9 -15 24 0 26 -39 76 -59 76 -6
0 -11 7 -11 15 0 8 -7 15 -15 15 -8 0 -15 7 -15 15 0 8 -7 15 -15 15 -10 0
-15 10 -15 28 0 27 -37 72 -59 72 -6 0 -11 7 -11 15 0 8 -7 15 -15 15 -10 0
-15 11 -15 35 0 24 -5 35 -15 35 -8 0 -15 7 -15 15 0 8 -7 15 -15 15 -8 0 -15
9 -15 19 0 30 -11 51 -26 51 -8 0 -14 7 -14 15 0 8 -7 15 -15 15 -10 0 -15 10
-15 29 0 16 -6 31 -15 35 -8 3 -15 17 -15 31 0 14 -7 28 -15 31 -8 4 -15 15
-15 25 0 10 -9 28 -20 39 -11 11 -20 31 -20 45 0 16 -6 25 -15 25 -10 0 -15
10 -15 28 0 27 -37 72 -59 72 -7 0 -11 20 -11 50 0 38 -4 50 -15 50 -10 0 -15
10 -15 30 0 20 -5 30 -15 30 -10 0 -15 10 -15 30 0 18 -6 33 -15 36 -8 4 -15
17 -15 31 0 16 -7 27 -20 30 -17 4 -20 14 -20 54 0 37 -4 49 -15 49 -10 0 -15
10 -15 30 0 18 -6 33 -15 36 -10 4 -15 20 -15 50 0 32 -4 44 -15 44 -10 0 -15
10 -15 34 0 44 -9 66 -26 66 -11 0 -14 16 -14 65 0 51 -3 65 -15 65 -11 0 -15
12 -15 50 0 38 -4 50 -15 50 -12 0 -15 16 -15 80 0 64 -3 80 -15 80 -12 0 -15
13 -15 55 0 42 -5 60 -20 75 -18 18 -20 33 -20 160 0 118 -2 140 -15 140 -13
0 -15 26 -15 175 0 147 -2 177 -15 181 -22 9 -22 359 0 368 13 4 15 34 15 181
0 149 2 175 15 175 13 0 15 21 15 130 0 106 3 130 14 130 20 0 30 54 15 78
-10 16 -9 26 5 56 9 20 21 36 26 36 13 0 13 77 -1 101 -8 16 -7 26 5 44 9 14
16 40 16 59 0 47 9 66 31 66 16 0 17 6 12 48 -4 36 -1 52 10 64 9 8 17 37 19
64 3 42 6 49 26 52 25 4 26 6 12 32 -13 24 -4 47 21 53 17 5 19 11 13 47 -6
36 -4 42 15 47 16 4 21 13 21 39 0 19 5 34 10 34 6 0 10 15 10 34 0 21 6 36
15 40 8 3 15 16 15 29 0 14 9 36 20 50 11 14 20 36 20 50 0 13 7 30 15 37 8 7
15 23 15 36 0 13 6 27 14 31 17 10 56 82 56 103 0 9 13 29 30 45 16 16 30 36
30 46 0 9 7 22 15 29 8 7 15 22 15 34 0 12 9 29 20 39 11 9 20 25 20 35 0 10
14 31 30 47 17 16 30 35 30 42 0 7 16 30 35 52 19 21 35 45 35 52 0 8 14 29
30 48 17 18 30 38 30 44 0 12 97 127 117 140 7 4 13 17 13 27 0 10 44 64 100
121 55 56 100 108 100 115 0 13 56 64 70 64 5 0 76 66 158 148 180 177 201
197 227 205 11 4 40 27 64 52 24 25 50 45 59 45 8 0 39 23 68 50 29 28 59 50
67 50 7 0 26 13 41 29 16 16 39 32 52 35 12 3 38 20 56 36 18 17 40 30 49 30
9 0 22 7 29 15 7 8 18 15 25 15 7 0 24 9 38 20 14 11 30 20 37 20 6 0 26 11
44 25 53 41 246 135 276 135 15 0 33 7 40 15 7 8 21 15 31 15 10 0 20 4 23 9
10 15 92 52 130 58 20 3 41 12 47 19 6 8 26 14 44 14 18 0 38 6 44 14 7 8 31
18 54 21 23 4 51 14 62 21 11 8 31 14 45 14 14 0 34 7 44 15 11 8 33 15 48 15
16 0 39 6 51 14 12 8 43 17 70 21 26 3 59 13 75 21 15 7 45 14 68 14 22 0 45
5 50 10 6 6 42 13 80 17 38 3 78 12 89 19 11 8 45 14 79 14 37 0 65 5 75 14
12 11 64 16 204 22 103 4 190 11 193 16 7 10 376 4 623 -11z"/>
<path d="M4750 9196 c-8 -8 -39 -17 -68 -19 -29 -2 -60 -11 -70 -21 -10 -9
-26 -16 -34 -16 -9 0 -21 -7 -28 -15 -7 -8 -20 -15 -29 -15 -9 0 -36 -19 -61
-41 -25 -23 -57 -46 -72 -51 -18 -6 -29 -19 -33 -38 -3 -15 -26 -46 -50 -68
-24 -22 -47 -51 -50 -65 -4 -14 -20 -37 -36 -53 -20 -19 -29 -37 -29 -60 0
-17 -7 -37 -15 -44 -10 -8 -15 -31 -15 -66 0 -33 -5 -58 -15 -68 -21 -21 -21
-242 0 -270 10 -13 15 -43 15 -82 0 -42 5 -65 15 -74 8 -7 15 -20 15 -30 0
-10 7 -23 15 -30 8 -7 15 -18 15 -25 0 -7 16 -32 35 -55 19 -23 35 -48 35 -55
0 -17 150 -165 167 -165 7 0 27 -13 45 -28 37 -33 93 -62 117 -62 9 0 33 -9
54 -20 21 -11 56 -20 81 -20 26 0 48 -6 56 -15 9 -11 34 -15 100 -15 66 0 91
4 100 15 9 11 32 15 78 15 45 0 71 5 82 15 10 9 35 19 56 22 22 3 43 12 47 20
4 7 18 13 31 13 12 0 35 14 51 30 16 17 36 30 44 30 20 0 171 153 171 172 0 8
14 27 30 43 17 16 30 39 30 52 0 13 7 26 15 29 9 4 15 19 15 38 0 17 6 40 14
51 7 11 16 38 20 59 4 21 14 45 22 53 21 21 21 335 -1 353 -8 7 -17 28 -21 48
-4 19 -13 47 -20 61 -8 14 -14 31 -14 37 0 7 -7 14 -15 18 -8 3 -15 17 -15 30
0 14 -8 30 -18 35 -10 5 -27 27 -38 48 -23 46 -126 153 -147 153 -8 0 -29 14
-47 30 -18 17 -40 30 -50 30 -11 0 -21 4 -24 9 -9 15 -88 49 -128 56 -21 4
-42 13 -49 21 -17 21 -358 20 -379 0z m226 -361 c10 -8 33 -15 50 -15 17 0 37
-6 43 -14 7 -8 25 -18 41 -21 16 -3 34 -13 41 -21 6 -8 16 -14 22 -14 15 0 97
-81 97 -96 0 -6 7 -17 15 -24 16 -13 22 -110 7 -110 -4 0 -37 29 -72 65 -40
40 -73 65 -86 65 -12 0 -24 7 -28 15 -3 8 -17 15 -30 15 -15 0 -30 8 -36 20
-10 18 -21 20 -109 20 -85 0 -100 -3 -116 -20 -10 -11 -28 -20 -40 -20 -13 0
-25 -7 -29 -15 -3 -8 -17 -15 -31 -15 -14 0 -28 -7 -31 -15 -4 -8 -16 -15 -27
-15 -12 0 -38 -16 -59 -36 l-37 -37 -7 27 c-5 21 1 34 30 66 20 22 36 45 36
52 0 16 41 58 57 58 7 0 30 16 52 35 33 30 45 35 88 35 33 0 55 5 63 15 16 19
70 19 96 0z"/>
<path d="M6437 9052 c-15 -15 -27 -35 -27 -44 0 -8 -7 -21 -15 -28 -10 -8 -15
-31 -15 -66 0 -51 2 -55 56 -108 l55 -56 67 0 c64 0 67 1 109 42 l43 42 0 81
0 81 -43 42 -43 42 -80 0 c-75 0 -82 -2 -107 -28z"/>
<path d="M3168 8918 c-16 -18 -28 -38 -28 -46 0 -7 -7 -20 -15 -28 -8 -9 -15
-28 -15 -43 0 -16 7 -34 15 -41 8 -7 15 -20 15 -29 0 -26 54 -81 79 -81 12 0
24 -7 27 -15 4 -8 16 -15 29 -15 12 0 28 7 35 15 7 8 20 15 30 15 10 0 36 18
58 40 68 68 68 146 -1 218 l-41 42 -81 0 c-78 0 -81 -1 -107 -32z"/>
<path d="M7792 8392 c-22 -5 -52 -26 -88 -62 -50 -50 -54 -58 -54 -101 0 -28
6 -51 14 -58 8 -7 17 -23 20 -36 4 -16 23 -31 60 -49 64 -31 129 -34 168 -8
33 22 68 65 68 85 0 8 7 20 15 27 8 7 15 28 15 48 0 45 -37 122 -58 122 -8 0
-23 7 -33 16 -20 18 -79 25 -127 16z"/>
<path d="M6745 8091 c-3 -6 -31 -22 -63 -37 -31 -15 -73 -40 -93 -55 -20 -16
-42 -29 -47 -29 -13 0 -62 -47 -62 -59 0 -4 -16 -29 -35 -54 -19 -25 -35 -52
-35 -60 0 -8 -7 -20 -15 -27 -8 -7 -15 -21 -15 -31 0 -9 -6 -24 -13 -31 -8 -7
-16 -44 -19 -82 -3 -37 -11 -73 -17 -79 -14 -14 -14 -90 0 -104 5 -5 13 -36
16 -67 3 -31 12 -61 19 -67 8 -6 14 -19 14 -29 0 -10 7 -23 15 -30 8 -7 15
-20 15 -30 0 -10 7 -23 15 -30 8 -7 15 -20 15 -29 0 -20 90 -111 109 -111 8 0
31 -16 52 -35 22 -19 45 -35 53 -35 7 0 19 -7 26 -15 7 -8 23 -15 35 -15 13 0
25 -6 28 -14 9 -22 375 -23 383 -1 3 8 11 15 18 15 6 1 29 9 51 20 22 11 44
19 48 20 4 0 22 13 40 30 18 16 38 30 44 30 19 0 103 88 103 108 0 10 14 31
30 47 18 17 30 39 30 55 0 14 8 37 17 50 15 21 18 50 18 195 0 158 -2 173 -23
217 -13 27 -28 50 -33 54 -5 3 -9 15 -9 27 0 36 -188 211 -265 248 -36 17 -67
34 -70 40 -8 12 -372 12 -380 0z m328 -404 c41 -37 57 -60 57 -78 0 -36 -10
-42 -33 -22 -16 15 -43 19 -151 21 -96 3 -135 8 -147 18 -15 13 -17 13 -22 -1
-7 -17 -37 -21 -37 -4 0 6 25 35 56 65 l57 54 82 0 81 0 57 -53z m-45 -129 c3
-13 -3 -18 -22 -18 -27 0 -41 14 -31 31 10 16 49 6 53 -13z"/>
<path d="M2882 7985 c-9 -11 -34 -15 -83 -15 -53 0 -71 -4 -75 -15 -4 -8 -16
-15 -29 -15 -12 0 -28 -7 -35 -15 -7 -8 -18 -15 -25 -15 -7 0 -24 -9 -38 -20
-14 -11 -32 -20 -41 -20 -22 0 -256 -238 -256 -260 0 -9 -9 -25 -20 -35 -12
-11 -20 -31 -20 -50 0 -18 -7 -38 -15 -45 -10 -8 -15 -30 -15 -65 0 -35 -5
-57 -15 -65 -12 -10 -15 -36 -15 -115 0 -79 3 -105 15 -115 10 -8 15 -30 15
-65 0 -35 5 -57 15 -65 8 -7 15 -26 15 -42 0 -16 9 -41 20 -55 11 -14 20 -32
20 -39 0 -7 14 -28 30 -46 17 -18 30 -39 30 -46 0 -18 154 -172 172 -172 7 0
29 -13 48 -29 19 -15 45 -31 58 -35 12 -4 22 -12 22 -17 0 -5 17 -9 37 -9 21
0 45 -8 56 -17 17 -16 43 -18 226 -18 180 0 209 2 231 18 13 9 38 17 55 17 22
0 40 9 60 30 16 17 35 30 43 30 8 0 32 16 53 35 22 19 47 35 56 35 18 0 63 45
63 63 0 6 23 36 50 68 28 32 50 64 50 71 0 8 13 27 29 42 19 18 30 41 34 68 3
23 11 45 19 49 10 6 13 54 13 216 0 197 -1 210 -23 253 -25 49 -36 70 -52 98
-6 9 -13 24 -16 32 -22 60 -59 114 -120 177 -39 40 -78 73 -86 73 -8 0 -28 13
-44 29 -17 16 -42 33 -57 36 -15 4 -27 11 -27 15 0 4 -18 10 -41 13 -22 3 -48
12 -58 21 -12 11 -37 16 -83 16 -46 0 -69 4 -78 15 -17 21 -150 20 -168 0z
m167 -389 c6 -7 30 -16 53 -19 24 -3 44 -11 46 -16 2 -6 10 -11 18 -11 19 0
114 -88 114 -106 0 -7 14 -28 30 -46 33 -36 39 -75 14 -85 -21 -8 -48 9 -52
33 -5 26 -42 64 -63 64 -9 0 -22 7 -29 15 -7 8 -29 15 -50 15 -21 0 -43 7 -50
15 -10 12 -40 15 -150 15 -113 0 -139 -3 -144 -15 -3 -8 -17 -15 -30 -15 -14
0 -29 -7 -34 -16 -14 -25 -66 -15 -70 14 -4 27 82 116 133 138 18 7 36 18 40
24 10 16 210 13 224 -4z"/>
<path d="M8242 7313 c-30 -6 -102 -80 -102 -103 0 -10 -7 -23 -15 -30 -8 -7
-15 -27 -15 -45 0 -18 7 -38 15 -45 8 -7 15 -20 15 -29 0 -27 81 -98 120 -106
19 -4 42 -14 51 -21 14 -13 18 -12 29 1 7 8 27 15 45 15 26 0 42 10 79 50 25
27 46 56 46 63 0 8 7 20 15 27 21 18 19 67 -5 97 -11 14 -20 31 -20 37 0 7
-17 29 -39 50 -37 36 -42 38 -117 41 -44 2 -89 1 -102 -2z"/>
<path d="M4910 6941 c0 -5 -11 -12 -25 -15 -32 -8 -71 -47 -79 -80 -3 -14 -11
-26 -16 -26 -16 0 -12 -76 5 -90 8 -7 15 -23 15 -35 0 -12 6 -28 14 -34 8 -7
17 -23 20 -36 4 -14 12 -25 20 -25 7 0 24 -9 38 -19 19 -16 37 -19 90 -17 72
4 86 11 143 74 38 42 38 44 37 122 -1 78 -1 79 -41 119 -22 22 -52 43 -66 47
-14 3 -25 10 -25 15 0 5 -29 9 -65 9 -36 0 -65 -4 -65 -9z"/>
<path d="M1680 6780 c0 -5 -14 -13 -32 -18 -23 -6 -34 -16 -39 -37 -5 -15 -14
-32 -21 -36 -19 -12 -15 -135 5 -157 8 -9 17 -26 18 -36 2 -10 11 -22 19 -26
8 -4 29 -15 46 -23 19 -10 49 -16 73 -14 34 2 51 12 96 54 l55 52 0 74 c0 80
-3 85 -79 150 -27 22 -43 27 -87 27 -30 0 -54 -4 -54 -10z"/>
<path d="M8211 6386 c-6 -7 -38 -16 -70 -20 -33 -4 -65 -13 -71 -21 -7 -8 -21
-15 -32 -15 -10 0 -21 -7 -24 -15 -4 -8 -16 -15 -29 -15 -29 0 -295 -260 -295
-288 0 -11 -7 -25 -15 -32 -8 -7 -15 -22 -15 -34 0 -12 -9 -39 -20 -61 -11
-22 -20 -51 -20 -66 0 -15 -7 -32 -15 -39 -12 -10 -15 -42 -15 -165 0 -123 3
-155 15 -165 8 -7 15 -26 15 -43 0 -17 7 -38 15 -47 9 -10 17 -34 19 -55 2
-22 10 -42 20 -47 9 -5 16 -19 16 -31 0 -13 24 -47 58 -83 32 -34 63 -73 70
-88 6 -14 18 -26 25 -26 8 0 39 -22 68 -50 30 -27 62 -50 71 -50 9 0 20 -5 23
-11 7 -11 107 -59 123 -59 5 0 15 -7 22 -15 9 -11 34 -15 95 -15 62 0 86 -4
95 -15 12 -14 15 -14 30 0 12 11 41 15 117 15 77 0 103 3 113 15 7 8 20 15 29
15 9 0 21 4 27 9 13 14 103 61 115 61 12 0 48 32 127 113 31 33 74 76 95 97
20 21 37 47 37 58 0 11 7 25 15 32 8 7 15 20 15 29 0 9 5 22 10 27 27 27 52
95 57 156 3 38 12 73 19 79 20 17 19 167 -1 189 -8 9 -17 47 -21 88 -4 41 -13
77 -20 83 -8 6 -14 19 -14 29 0 10 -7 23 -15 30 -8 7 -15 20 -15 30 0 9 -13
33 -30 51 -16 19 -30 39 -30 45 0 18 -187 204 -204 204 -9 0 -29 14 -46 30
-17 17 -39 30 -49 30 -10 0 -26 9 -36 20 -13 15 -31 20 -65 20 -30 0 -52 6
-60 15 -17 21 -312 22 -329 1z m255 -385 c15 -16 104 -61 118 -61 20 0 86 -77
86 -99 0 -10 7 -24 15 -31 8 -7 15 -19 15 -28 0 -8 7 -23 16 -33 9 -10 13 -23
9 -28 -9 -16 -52 -13 -59 4 -3 8 -15 15 -26 15 -12 0 -47 27 -85 65 -36 36
-73 65 -83 65 -11 0 -27 9 -37 20 -13 15 -31 20 -64 20 -34 0 -51 -5 -64 -20
-10 -13 -29 -20 -50 -20 -24 0 -41 -8 -62 -30 -27 -29 -34 -31 -90 -28 -57 3
-60 4 -57 27 2 26 62 89 102 109 14 6 32 16 40 20 67 39 78 41 171 42 52 0 99
-4 105 -9z"/>
<path d="M3926 6055 c-11 -8 -28 -15 -38 -15 -10 0 -18 -4 -18 -10 0 -5 -12
-13 -27 -16 -16 -4 -41 -20 -57 -35 -16 -16 -39 -32 -50 -35 -30 -10 -85 -64
-100 -99 -8 -16 -25 -42 -38 -57 -14 -14 -28 -38 -32 -52 -3 -14 -11 -26 -16
-26 -6 0 -10 -15 -10 -33 0 -18 -8 -44 -17 -57 -25 -35 -23 -302 1 -329 9 -10
16 -27 16 -38 0 -11 7 -26 15 -33 8 -7 15 -20 15 -30 0 -10 7 -23 15 -30 8 -7
15 -19 15 -27 0 -21 150 -173 170 -173 9 0 29 -13 46 -29 16 -16 46 -31 69
-35 22 -4 46 -13 54 -19 10 -8 71 -12 190 -12 152 0 179 2 201 18 13 9 36 17
50 17 16 0 37 12 54 29 15 16 40 32 54 35 15 3 42 25 60 49 71 90 102 136 102
150 0 8 7 20 15 27 8 7 15 21 15 31 0 9 8 25 18 35 15 16 17 40 17 216 0 135
-4 201 -11 206 -6 4 -14 17 -18 29 -4 12 -20 36 -37 54 -16 17 -29 36 -29 43
0 14 -44 69 -84 105 -16 14 -46 43 -67 64 -21 21 -44 37 -51 35 -21 -4 -68 11
-68 22 0 6 -8 10 -18 10 -10 0 -27 7 -38 15 -28 21 -340 21 -368 0z m301 -387
c10 -9 27 -18 38 -20 15 -2 20 -11 20 -33 l0 -30 -75 -3 c-52 -2 -77 -7 -83
-17 -5 -9 -23 -15 -47 -15 -22 0 -42 -6 -47 -14 -9 -15 -119 -30 -127 -17 -9
14 39 102 71 133 36 34 51 37 150 34 58 -2 88 -7 100 -18z"/>
<path d="M4070 5600 c0 -5 11 -10 25 -10 14 0 25 5 25 10 0 6 -11 10 -25 10
-14 0 -25 -4 -25 -10z"/>
<path d="M6086 5961 c-3 -5 -31 -12 -63 -16 -31 -4 -63 -13 -70 -21 -8 -8 -23
-14 -32 -14 -10 0 -24 -7 -31 -15 -7 -8 -20 -15 -30 -15 -10 0 -23 -7 -30 -15
-7 -8 -21 -15 -31 -15 -9 0 -24 -6 -31 -14 -8 -7 -25 -17 -38 -21 -32 -10
-140 -122 -140 -145 0 -10 -13 -30 -30 -43 -16 -14 -30 -34 -30 -44 0 -11 -4
-23 -9 -28 -22 -22 -61 -108 -61 -134 0 -16 -7 -34 -15 -41 -11 -9 -15 -34
-15 -95 0 -61 -4 -86 -15 -95 -8 -7 -15 -20 -15 -30 0 -10 7 -23 15 -30 11 -9
15 -32 15 -80 0 -45 5 -71 14 -79 7 -6 16 -38 20 -70 4 -33 13 -65 21 -71 8
-7 15 -21 15 -31 0 -10 14 -32 30 -49 17 -17 30 -37 30 -45 0 -22 173 -193
203 -200 14 -4 31 -13 38 -21 6 -8 19 -14 29 -14 10 0 23 -7 30 -15 7 -8 20
-15 30 -15 10 0 23 -7 30 -15 7 -8 18 -15 25 -15 7 0 24 -9 38 -20 23 -18 40
-20 217 -20 177 0 194 2 217 20 14 11 36 20 49 20 12 0 35 7 51 14 15 8 35 18
43 21 8 3 35 16 59 30 24 14 49 25 56 25 16 0 195 184 195 202 0 8 16 31 35
51 26 27 35 45 35 70 0 19 7 40 15 47 8 7 15 26 15 43 0 17 8 39 17 49 15 16
17 44 17 213 -1 167 -3 197 -17 213 -10 10 -17 32 -17 49 0 17 -7 36 -15 43
-8 7 -15 21 -15 31 0 9 -7 24 -15 33 -8 8 -15 22 -15 30 0 9 -16 33 -35 55
-19 21 -35 45 -35 53 0 19 -82 98 -101 98 -9 0 -26 12 -40 26 -25 26 -111 74
-134 74 -7 0 -18 7 -25 15 -7 8 -20 15 -30 15 -10 0 -23 6 -29 14 -6 7 -42 16
-83 20 -40 4 -77 11 -82 16 -12 12 -223 13 -230 1z m235 -397 c8 -8 30 -14 48
-14 22 0 41 -9 60 -28 15 -15 40 -33 54 -39 15 -7 27 -18 27 -25 0 -7 14 -27
32 -45 27 -28 30 -36 20 -55 -6 -13 -12 -32 -14 -43 -4 -27 -38 -33 -38 -7 0
27 -38 72 -60 72 -11 0 -34 16 -53 35 -19 19 -44 35 -56 35 -12 0 -24 7 -27
15 -5 12 -29 15 -129 15 -100 0 -124 -3 -129 -15 -3 -8 -16 -15 -28 -15 -15 0
-47 -24 -87 -65 -36 -35 -69 -62 -73 -59 -14 9 -9 51 7 64 8 7 15 21 15 31 0
11 18 37 40 59 22 22 48 40 59 40 10 0 24 7 31 15 7 8 20 15 30 15 10 0 23 7
30 15 22 27 210 26 241 -1z"/>
<path d="M2035 5831 c-3 -5 -31 -13 -62 -17 -32 -4 -63 -13 -71 -20 -7 -8 -22
-14 -31 -14 -10 0 -24 -7 -31 -15 -7 -8 -20 -15 -30 -15 -23 0 -200 -177 -200
-200 0 -10 -6 -23 -14 -29 -8 -7 -17 -24 -21 -39 -4 -15 -11 -29 -16 -33 -6
-3 -13 -39 -16 -80 -4 -46 -11 -77 -19 -82 -18 -11 -18 -86 0 -93 8 -3 15 -31
20 -80 3 -46 12 -81 21 -90 8 -9 15 -24 15 -33 0 -10 7 -24 15 -31 8 -7 15
-20 15 -29 0 -9 13 -31 29 -49 16 -17 33 -41 36 -53 9 -27 37 -55 64 -64 12
-3 36 -20 53 -36 18 -16 40 -29 49 -29 9 0 22 -6 28 -14 7 -8 23 -17 38 -21
14 -3 32 -13 40 -20 8 -8 29 -15 47 -15 19 0 38 -6 44 -13 13 -16 205 -15 225
1 7 5 30 12 51 15 22 4 42 11 45 16 4 5 18 12 33 16 15 4 32 13 39 21 6 8 19
14 28 14 21 0 171 151 171 172 0 8 14 27 30 43 17 16 30 39 30 52 0 13 6 26
14 29 10 4 17 30 22 85 3 43 11 79 15 79 12 0 12 117 0 124 -4 3 -11 38 -15
78 -4 41 -13 79 -21 88 -8 9 -15 24 -15 32 0 9 -7 21 -15 28 -8 7 -15 21 -15
31 0 18 -181 209 -198 209 -5 0 -34 13 -66 29 -31 16 -82 33 -112 37 -30 3
-54 10 -54 15 0 12 -187 12 -195 0z m205 -396 c7 -8 18 -15 26 -15 16 0 64
-46 64 -62 0 -6 7 -19 16 -29 26 -29 8 -39 -71 -39 -55 0 -74 4 -79 15 -3 8
-15 15 -27 15 -12 0 -28 8 -35 18 -13 16 -15 16 -28 0 -10 -14 -28 -18 -84
-18 -41 0 -74 5 -78 11 -3 6 18 35 47 65 l53 54 92 0 c69 0 95 -4 104 -15z"/>
<path d="M3960 4195 c-9 -10 -32 -15 -76 -15 -42 0 -67 -5 -78 -15 -8 -8 -26
-15 -40 -15 -14 0 -43 -9 -63 -20 -21 -11 -43 -20 -50 -20 -7 0 -13 -4 -13
-10 0 -5 -12 -13 -27 -16 -34 -9 -243 -211 -243 -235 0 -9 -7 -22 -15 -29 -8
-7 -15 -23 -15 -35 0 -12 -7 -28 -15 -35 -8 -7 -15 -20 -15 -30 0 -10 -6 -23
-14 -29 -7 -6 -16 -29 -19 -51 -3 -22 -12 -47 -21 -55 -22 -23 -24 -326 -2
-344 8 -7 17 -35 21 -64 14 -103 123 -293 214 -372 13 -11 39 -35 58 -54 33
-33 115 -80 139 -81 6 0 17 -7 24 -15 7 -8 20 -15 30 -15 10 0 23 -7 30 -15 7
-8 27 -15 45 -15 18 0 38 -7 45 -15 18 -22 344 -22 366 0 9 8 31 15 49 15 19
0 36 4 40 9 5 9 107 61 119 61 3 0 20 14 38 30 18 17 39 30 48 30 23 0 160
142 160 165 0 11 13 31 30 45 16 13 32 37 36 53 3 16 12 31 20 34 8 3 14 19
14 41 0 19 7 43 15 52 8 9 17 47 21 88 4 40 11 75 15 78 12 7 12 164 0 164 -4
0 -11 41 -14 90 -4 62 -11 95 -21 106 -9 8 -16 24 -16 33 0 10 -7 24 -15 31
-8 7 -15 20 -15 30 0 10 -7 23 -15 30 -8 7 -15 18 -15 25 0 8 -16 34 -35 59
-19 26 -35 51 -35 57 0 13 -47 59 -60 59 -4 0 -35 22 -67 48 -32 26 -84 60
-116 76 -31 16 -60 33 -63 37 -3 5 -16 9 -29 9 -12 0 -25 7 -29 15 -4 12 -24
15 -90 15 -62 0 -89 4 -100 15 -9 10 -34 15 -69 15 -36 0 -59 -5 -67 -15z
m166 -390 c10 -8 30 -15 43 -15 28 0 87 -34 95 -55 3 -8 14 -15 25 -15 21 0
71 -53 71 -75 0 -7 7 -18 15 -25 8 -7 15 -20 15 -30 0 -10 7 -23 15 -30 17
-14 20 -56 5 -65 -5 -3 -45 30 -88 75 -69 70 -84 80 -114 80 -22 0 -41 7 -53
20 -12 13 -31 20 -55 20 -27 0 -40 5 -45 18 -6 16 -7 16 -18 1 -9 -12 -33 -18
-83 -20 -63 -4 -74 -8 -105 -37 -19 -17 -41 -32 -50 -32 -9 0 -22 -7 -29 -16
-20 -24 -64 -14 -68 15 -3 19 12 40 73 98 74 70 79 73 125 73 30 0 52 6 60 15
17 21 139 21 166 0z"/>
<path d="M2240 3989 c-39 -21 -80 -63 -80 -83 0 -8 -7 -19 -15 -26 -23 -19
-20 -102 5 -125 11 -10 20 -27 20 -37 0 -31 80 -98 116 -98 17 0 37 -7 44 -15
7 -8 23 -15 35 -15 13 0 25 7 29 15 3 8 16 15 30 15 27 0 106 83 106 111 0 9
7 22 15 29 9 8 15 30 15 60 0 30 -6 52 -15 60 -8 7 -15 18 -15 25 0 23 -41 65
-83 85 -53 26 -157 25 -207 -1z"/>
<path d="M8003 3959 c-40 -39 -53 -60 -58 -92 -4 -23 -12 -48 -17 -54 -7 -9
-7 -17 -1 -25 6 -7 13 -29 17 -49 5 -26 20 -49 51 -78 25 -23 51 -41 59 -41 7
0 19 -7 26 -15 7 -8 27 -15 45 -15 18 0 38 7 45 15 7 8 21 15 30 15 25 0 110
87 110 111 0 11 7 22 15 25 11 5 15 22 15 65 0 32 -4 59 -9 59 -5 0 -14 13
-19 30 -14 40 -41 67 -75 75 -15 4 -30 11 -33 16 -3 5 -38 9 -77 9 l-72 0 -52
-51z"/>
<path d="M5990 3545 c-7 -8 -19 -15 -27 -15 -8 0 -26 -9 -40 -20 -14 -11 -31
-20 -37 -20 -6 0 -31 -19 -56 -41 -25 -22 -57 -45 -73 -51 -17 -6 -30 -20 -34
-36 -3 -15 -19 -39 -35 -55 -15 -15 -28 -35 -28 -45 0 -10 -4 -22 -9 -27 -22
-22 -61 -108 -61 -134 0 -16 -7 -34 -16 -42 -13 -11 -15 -30 -11 -111 2 -53 9
-103 15 -111 7 -8 15 -29 18 -48 4 -19 13 -43 21 -54 7 -11 13 -27 13 -37 0
-10 4 -18 10 -18 5 0 13 -12 16 -26 4 -14 16 -36 28 -48 11 -13 37 -41 57 -62
44 -48 98 -94 109 -94 11 0 102 -48 114 -61 6 -5 18 -9 27 -9 9 0 22 -7 29
-15 18 -22 275 -22 296 0 9 8 30 15 48 15 19 0 39 7 46 15 7 8 20 15 30 15 10
0 23 6 29 14 7 8 23 17 36 20 31 8 235 213 235 237 0 9 7 22 15 29 8 7 15 22
15 34 0 11 7 35 16 51 23 43 23 306 0 350 -9 17 -16 39 -16 51 0 11 -13 33
-30 49 -16 16 -30 36 -30 44 0 18 -143 171 -159 171 -12 0 -102 47 -115 61 -6
5 -18 9 -27 9 -9 0 -22 7 -29 15 -10 12 -45 15 -195 15 -150 0 -185 -3 -195
-15z m307 -400 c63 -34 83 -53 83 -81 0 -29 -14 -38 -30 -19 -10 12 -42 15
-159 15 -80 0 -153 5 -161 10 -12 8 -7 18 32 55 46 45 48 45 117 45 56 0 80
-5 118 -25z"/>
<path d="M7446 3505 c-11 -8 -32 -15 -46 -15 -74 0 -127 -152 -84 -241 22 -45
64 -89 85 -89 9 0 22 -7 29 -15 8 -9 30 -15 59 -15 44 0 50 4 104 58 l57 58 0
64 c0 44 -6 77 -20 106 -27 54 -46 70 -95 77 -22 4 -41 11 -43 17 -5 14 -24
12 -46 -5z"/>
</g>
</svg>
