<?xml version="1.0" encoding="UTF-8" standalone="no"?>
<!-- Created with Inkscape (http://www.inkscape.org/) -->

<svg
   width="60.289661mm"
   height="60.28299mm"
   viewBox="0 0 60.289661 60.28299"
   version="1.1"
   id="svg1"
   xml:space="preserve"
   inkscape:export-filename="chocolateChipCookie.png"
   inkscape:export-xdpi="600"
   inkscape:export-ydpi="600"
   xmlns:inkscape="http://www.inkscape.org/namespaces/inkscape"
   xmlns:sodipodi="http://sodipodi.sourceforge.net/DTD/sodipodi-0.dtd"
   xmlns="http://www.w3.org/2000/svg"
   xmlns:svg="http://www.w3.org/2000/svg"><sodipodi:namedview
     id="namedview1"
     pagecolor="#ffffff"
     bordercolor="#666666"
     borderopacity="1.0"
     inkscape:showpageshadow="2"
     inkscape:pageopacity="0.0"
     inkscape:pagecheckerboard="0"
     inkscape:deskcolor="#d1d1d1"
     inkscape:document-units="mm" /><defs
     id="defs1" /><g
     inkscape:label="Layer 1"
     inkscape:groupmode="layer"
     id="layer1"
     transform="translate(-38.812001,-76.431516)"><path
       style="fill:#000000"
       d="m 51.369581,136.60985 c -1.43545,-0.23847 -2.55801,-0.9225 -4.21267,-2.56697 -2.28132,-2.26727 -3.91867,-4.49187 -5.27063,-7.16098 -2.18889,-4.32144 -3.07428,-8.05638 -3.07428,-12.9686 0,-3.77253 0.40677,-6.30022 1.51678,-9.42543 1.54354,-4.34576 4.28408,-8.469871 7.73967,-11.647062 l 0.96023,-0.882866 5.3e-4,-3.241531 5.3e-4,-3.241531 -0.46732,-0.451018 c -1.56845,-1.513756 -1.96998,-3.710936 -1.03252,-5.650025 0.43212,-0.89382 1.47071,-1.936658 2.32858,-2.338106 1.35272,-0.633013 0.40264,-0.603118 19.20207,-0.604206 11.27378,-6.52e-4 17.37284,0.03469 17.80517,0.103184 1.9797,0.313632 3.793,1.999867 4.24092,3.943737 0.0573,0.248838 0.10483,0.748342 0.10553,1.11001 0.002,1.291076 -0.44876,2.346385 -1.40457,3.284719 l -0.61507,0.603827 v 3.405911 3.405911 l 0.68287,0.631576 c 1.64792,1.524142 3.52198,3.797558 4.77857,5.796858 1.99872,3.180092 3.45693,6.986872 4.10193,10.708482 0.49785,2.87255 0.45572,6.50031 -0.11115,9.57004 -0.93241,5.04932 -2.89869,9.37121 -6.04033,13.2767 -2.20845,2.74541 -3.55625,3.82121 -5.38059,4.29477 -0.53364,0.13853 -2.59797,0.15516 -17.95691,0.14469 -9.63555,-0.007 -17.59564,-0.052 -17.89734,-0.10209 z m 32.043546,-22.61379 c 2.149899,-4.18752 6.060592,-19.371655 -14.301996,-23.954993 -0.870302,-0.195893 -3.3403,-0.166267 -7.53375,-0.214905 l -6.21861,-0.07213 -0.28129,-0.281294 c -0.35989,-0.359886 -0.35586,-0.642516 0.0144,-1.012799 l 0.29571,-0.295715 h 6.41345 c 7.08442,0 6.98799,0.0078 7.93159,-0.642459 0.48461,-0.333955 1.06008,-1.199875 0.90229,-1.357674 -0.0406,-0.04057 -4.01922,-0.07376 -8.84146,-0.07376 h -8.7677 l -0.0265,3.760752 -0.0265,3.760752 -0.93456,0.809174 c -1.04136,0.901647 -2.70602,2.578927 -3.47933,3.505712 -3.10648,3.722989 -5.24109,8.647569 -5.75948,13.287229 -0.19512,1.74638 -0.02596,5.16829 2.496286,7.70403 M 69.868761,82.246611 c 0.61492,-0.31799 0.78962,-1.016811 0.40987,-1.639609 -0.40901,-0.670802 0.0846,-0.637198 -9.36015,-0.637198 -9.42575,0 -9.06169,-0.0241 -9.45817,0.626198 -0.34259,0.561908 -0.2447,1.232404 0.23687,1.62249 0.20072,0.162588 0.83233,0.174948 9.04751,0.17704 7.64061,0.0019 8.87116,-0.01814 9.12407,-0.148921 z"
       id="path7413-0"
       sodipodi:nodetypes="cssssscccsssssccscccsssssscccsscsscsssscccssscssssscs"
       inkscape:export-filename=".\emptyJar.svg"
       inkscape:export-xdpi="600"
       inkscape:export-ydpi="600" /></g></svg>
