<?xml version="1.0" encoding="UTF-8" standalone="no"?>
<!-- Created with Inkscape (http://www.inkscape.org/) -->

<svg
   width="36.954178mm"
   height="36.950111mm"
   viewBox="0 0 36.954178 36.950111"
   version="1.1"
   id="svg1"
   xml:space="preserve"
   inkscape:export-filename="chocolateChipCookie.png"
   inkscape:export-xdpi="600"
   inkscape:export-ydpi="600"
   xmlns:inkscape="http://www.inkscape.org/namespaces/inkscape"
   xmlns:sodipodi="http://sodipodi.sourceforge.net/DTD/sodipodi-0.dtd"
   xmlns="http://www.w3.org/2000/svg"
   xmlns:svg="http://www.w3.org/2000/svg"><sodipodi:namedview
     id="namedview1"
     pagecolor="#ffffff"
     bordercolor="#666666"
     borderopacity="1.0"
     inkscape:showpageshadow="2"
     inkscape:pageopacity="0.0"
     inkscape:pagecheckerboard="0"
     inkscape:deskcolor="#d1d1d1"
     inkscape:document-units="mm" /><defs
     id="defs1" /><g
     inkscape:label="Layer 1"
     inkscape:groupmode="layer"
     id="layer1"
     transform="translate(-40.270242,-101.77789)"><path
       style="fill:#000000;stroke-width:0.612944"
       d="m 47.967322,138.6638 c -0.87985,-0.14616 -1.56791,-0.56544 -2.58213,-1.5734 -1.39832,-1.38971 -2.40192,-2.75327 -3.23059,-4.38928 -1.34167,-2.6488 -1.88436,-4.93811 -1.88436,-7.94902 0,-2.31235 0.24932,-3.86168 0.9297,-5.77725 0.9461,-2.66371 2.6259,-5.19156 4.74398,-7.13899 l 0.58856,-0.54115 3.3e-4,-1.98688 3.2e-4,-1.98687 -0.28644,-0.27645 c -0.96137,-0.92785 -1.20748,-2.27459 -0.63287,-3.46315 0.26486,-0.54786 0.90146,-1.18706 1.42728,-1.43312 0.82915,-0.388 0.2468,-0.36968 11.769789,-0.37035 6.91019,-4e-4 10.64857,0.0213 10.91357,0.0633 1.21344,0.19224 2.32489,1.2258 2.59944,2.41729 0.0351,0.15252 0.0643,0.45869 0.0647,0.68037 0.001,0.79136 -0.27506,1.4382 -0.86092,2.01335 l -0.377,0.37011 v 2.08763 2.08763 l 0.41856,0.38712 c 1.01008,0.93421 2.15877,2.32769 2.92899,3.55315 1.22511,1.94921 2.11891,4.28255 2.51425,6.56369 0.30516,1.76071 0.27933,3.98432 -0.0681,5.86589 -0.57152,3.09495 -1.77674,5.74403 -3.70239,8.13787 -1.35365,1.68278 -2.17978,2.34219 -3.29799,2.63245 -0.32709,0.0849 -1.59241,0.0951 -11.00657,0.0887 -5.90605,-0.004 -10.785139,-0.0319 -10.970069,-0.0626 z m 2.27274,-28.89237 c -0.22059,-0.22059 -0.21812,-0.39383 0.009,-0.62079 l 0.18125,-0.18126 h 3.931079 c 4.34235,0 4.28325,0.005 4.86162,-0.39379 0.29704,-0.20469 0.64977,-0.73545 0.55305,-0.83217 -0.0249,-0.0249 -2.46355,-0.0452 -5.41931,-0.0452 h -5.374109 l 0.04368,2.18537 m 10.280217,-4.54135 c 0.37691,-0.19491 0.48399,-0.62325 0.25123,-1.00499 -0.2507,-0.41116 0.0519,-0.39056 -5.73725,-0.39056 -5.777449,0 -5.554299,-0.0148 -5.797319,0.38382 -0.20999,0.34442 -0.14999,0.7554 0.14519,0.9945 0.12303,0.0996 0.51017,0.10723 5.545609,0.10851 4.68326,0.001 5.43752,-0.0111 5.59254,-0.0913 z"
       id="path7413-0-3-0"
       sodipodi:nodetypes="cssssscccsssssccscccsssssscccccsssscccsssscsss"
       inkscape:export-filename=".\almostFullJar.svg"
       inkscape:export-xdpi="600"
       inkscape:export-ydpi="600" /></g></svg>
